<svg xmlns="http://www.w3.org/2000/svg" viewBox="0 0 371.671 221.548">
  <defs>
    <style>
      .cls-1 {
        fill: none;
      }

      .cls-2 {
        fill: #404040;
      }

      .cls-3 {
        fill: #1d1d1d;
      }

      .cls-4 {
        fill: #fff;
      }

      .cls-5 {
        fill: #3e5fb3;
      }

      .cls-6 {
        fill: #a5754f;
      }

      .cls-7 {
        fill: #3380c6;
      }

      .cls-8 {
        fill: #f6f5bd;
      }

      .cls-9 {
        fill: #5c5e48;
      }

      .cls-10 {
        fill: #f3b51b;
      }

      .cls-11 {
        fill: #86cebb;
      }

      .cls-12 {
        fill: #ed1c24;
      }

      .cls-13 {
        fill: #c2c4c6;
      }

      .cls-14 {
        fill: #8e5ba6;
      }
    </style>
  </defs>
  <g id="Group_773" data-name="Group 773" transform="translate(-205.341 -1506.976)">
    <g id="Group_769" data-name="Group 769" transform="translate(336.667 1506.976)">
      <path id="Path_2686" data-name="Path 2686" class="cls-1" d="M105.651,14.8h0c-14.3,0-28.963,4.155-37.151,12.1h73.325C133.881,18.711,119.339,14.8,105.651,14.8Z" transform="translate(15.216 3.287)"/>
      <path id="Path_2687" data-name="Path 2687" class="cls-1" d="M106.384,9.155h0c12.343,0,24.075,2.689,32.752,7.577a32.916,32.916,0,0,1,5.255,3.544C136.814,10.622,120.8,6.1,106.017,6.1h0C89.4,6.1,72.288,11.6,65.2,22.231a39.5,39.5,0,0,1,7.577-5.255C81.942,11.966,93.8,9.155,106.384,9.155Z" transform="translate(14.483 1.355)"/>
      <g id="Group_738" data-name="Group 738" transform="translate(0.003 30.185)">
        <path id="Path_2688" data-name="Path 2688" class="cls-2" d="M149.134,38.021a20.83,20.83,0,0,0-6.11-13.321H69.7a20.656,20.656,0,0,0-6.477,13.321c0,.611-.122,1.1-.122,1.711h86.157C149.257,39.243,149.134,38.632,149.134,38.021Z" transform="translate(14.013 -24.7)"/>
        <path id="Path_2689" data-name="Path 2689" class="cls-2" d="M209.847,144.564,199.459,51.686A32.133,32.133,0,0,0,167.807,24.8H136.4a28.316,28.316,0,0,1,4.033,12.71c0,.733.122,1.466.122,2.2h27.252c15.643,0,29.086,10.265,31.652,24.075l10.388,83.1a8.068,8.068,0,0,1,.122,1.711A14.877,14.877,0,0,0,209.847,144.564Z" transform="translate(30.292 -24.678)"/>
        <path id="Path_2690" data-name="Path 2690" class="cls-2" d="M69.17,24.822H42.162A32.246,32.246,0,0,0,10.51,51.708L.122,144.586A10.513,10.513,0,0,0,0,146.541v1.589a4.157,4.157,0,0,1,.122-1.222l10.388-83.1c2.811-13.932,16.131-24.075,31.652-24.075h27.5c0-.733.122-1.466.122-2.2A26.735,26.735,0,0,1,74.058,24.7H69.17Z" transform="translate(0 -24.7)"/>
      </g>
      <path id="Path_2691" data-name="Path 2691" class="cls-3" d="M240.264,126.167A20.826,20.826,0,0,1,222.3,145.476c-.855.122-1.711.122-2.566.244H20.9A21.48,21.48,0,0,1,0,125.8c-.489,10.754,8.921,19.92,20.9,19.92H219.733C231.465,145.72,240.875,136.677,240.264,126.167Z" transform="translate(0 27.938)"/>
      <path id="Path_2692" data-name="Path 2692" class="cls-3" d="M240.139,144.3,229.751,61.2C227.185,47.265,213.742,37,198.1,37H42.162C26.641,37,13.321,47.021,10.51,61.075L.122,144.176A4.157,4.157,0,0,1,0,145.4a21.206,21.206,0,0,0,20.9,19.92H219.73a18.232,18.232,0,0,0,2.566-.244,20.721,20.721,0,0,0,17.965-19.309A6.459,6.459,0,0,0,240.139,144.3Z" transform="translate(0.003 8.217)"/>
      <path id="Path_2693" data-name="Path 2693" d="M130.844,61.322a4.159,4.159,0,0,0,1.222-.122H129.5A5.482,5.482,0,0,0,130.844,61.322Z" transform="translate(28.763 13.591)"/>
      <path id="Path_2694" data-name="Path 2694" d="M58.144,67.522l.244-.122H56.8Z" transform="translate(12.617 14.968)"/>
      <path id="Path_2695" data-name="Path 2695" d="M223.553,74.791H171.492c-.122-.978-.367-2.444-.611-4.522-.244-1.589-.367-3.422-.611-5.866-.489-4.522-.978-10.754-1.589-19.309,0-.733-.122-1.466-.122-2.2a28.316,28.316,0,0,0-4.033-12.71h3.911c-1.466-9.41-7.21-17.231-16.987-22.608-8.8-4.888-20.531-7.577-33-7.577h0C105.866,0,93.89,2.811,84.6,7.821c-10.021,5.5-16.009,13.2-17.476,22.486h4.766a28.1,28.1,0,0,0-4.277,12.832c0,.733-.122,1.466-.122,2.2-.611,8.31-1.1,14.543-1.589,19.064-.611,5.622-.978,8.677-1.344,10.51H12.988a3.788,3.788,0,1,0,0,7.577H223.675a3.808,3.808,0,0,0,3.788-3.788A4.021,4.021,0,0,0,223.553,74.791ZM118.454,7.577h0c14.787,0,30.8,4.522,38.373,14.176a56.3,56.3,0,0,0-5.255-3.544c-8.8-4.888-20.409-7.577-32.752-7.577h0c-12.587,0-24.442,2.811-33.607,7.821a43.733,43.733,0,0,0-7.577,5.255C84.724,13.076,101.956,7.577,118.454,7.577Zm40.329,67.214c-.367,0-.855.122-1.222.122a4.158,4.158,0,0,1-1.222-.122H72.259c.733-4.888,1.711-13.565,2.811-29.574,0-.611.122-1.1.122-1.711a20.1,20.1,0,0,1,6.477-13.321c8.188-8.066,22.853-12.1,37.151-12.1h0c13.565,0,28.23,3.911,36.174,12.1a20.873,20.873,0,0,1,6.11,13.321c0,.611.122,1.1.122,1.711.122,2.2.367,4.277.489,6.233,0,.611.122,1.344.122,1.955,0,.733.122,1.466.122,2.2.489,5.5.855,9.777,1.222,13.076.122.733.122,1.344.244,1.955s.122,1.222.244,1.711c.122.855.244,1.589.367,2.322h-5.255Z" transform="translate(2.046 0)"/>
      <path id="Path_2696" data-name="Path 2696" class="cls-3" d="M57.9,67.5" transform="translate(12.862 14.99)"/>
      <path id="Path_2697" data-name="Path 2697" class="cls-3" d="M143.4,61.2" transform="translate(31.849 13.591)"/>
      <g id="Group_739" data-name="Group 739" transform="translate(163.273 121.475)">
        <path id="Path_2698" data-name="Path 2698" class="cls-1" d="M152.733,110.844c-.122.122-.244.244-.244.367a.635.635,0,0,0-.244.489.926.926,0,0,0-.244.489c-.122.122-.122.367-.244.489l-.244.489-.244.489c-.122.122-.122.367-.244.489a.735.735,0,0,0-.122.489v.611a.12.12,0,0,0,.122-.122l.367-.367.367-.367a12505.7,12505.7,0,0,1,.489-.978l.489-.978c.122-.244.244-.611.367-.855s.244-.611.367-.855c-.122,0-.244-.122-.367-.122Z" transform="translate(-129.758 -96.913)"/>
        <path id="Path_2699" data-name="Path 2699" class="cls-1" d="M156.522,112.744c0-.122.122-.122,0,0h0c.244-.122.244-.244.367-.367s.122-.244.244-.367a.449.449,0,0,0,.122-.367c0-.122.122-.244.122-.367v-.122h0v-.733c-.122.122-.122.244-.244.367s-.122.244-.244.367l-.244.367-.122.367-.122.367v.244C156.522,112.622,156.522,112.622,156.522,112.744Z" transform="translate(-128.537 -96.979)"/>
        <path id="Path_2700" data-name="Path 2700" class="cls-1" d="M172.122,112.622v.122c.122-.122.122-.122,0-.122h0c.244,0,.244-.122.367-.244s.122-.244.244-.367a.449.449,0,0,0,.122-.367c0-.122.122-.244.122-.367v-.122h0v-.733c-.122.122-.122.244-.244.367s-.122.244-.244.367l-.244.367-.122.367-.122.367v.122c.122.122.122.122.122.244Z" transform="translate(-125.072 -96.979)"/>
        <path id="Path_2701" data-name="Path 2701" class="cls-1" d="M148.211,110.767V110.4h0c-.122.122-.122.122-.122.244l-.244.244h0c-.122.122-.122.244-.244.367s-.122.244-.244.367a5.959,5.959,0,0,0-.367.855l-.122.244-.122.244-.122.244c0,.122,0,.122-.122.244v1.466h.367c.122,0,.122-.122.244-.122l.244-.244a.12.12,0,0,1,.122-.122l.122-.244.244-.367c.122-.122.122-.244.244-.367a.449.449,0,0,0,.122-.367,7737.012,7737.012,0,0,1,.244-.733.735.735,0,0,1-.122-.489A4.729,4.729,0,0,1,148.211,110.767Z" transform="translate(-130.735 -96.957)"/>
        <path id="Path_2702" data-name="Path 2702" class="cls-4" d="M176.373,108.688c.122-.489.367-.978.489-1.589l.122-.244c0-.122.122-.122.122-.244a.12.12,0,0,1,.122-.122l11.365-1.344s9.288-.733,8.921-1.589c-.244-.611-11.243.367-11.488.489l-7.944.978h0l.244-.489c0-.122.122-.122.122-.244s.122-.122.122-.244l.122-.367V102.7c0-.122,0-.122-.122-.244l-.122-.122-.122-.122a.12.12,0,0,1-.122-.122.923.923,0,0,0,.855-.489,1.388,1.388,0,0,0,.367-.978.818.818,0,0,0-.489-.855,1.388,1.388,0,0,0-.978-.367L151.2,101.722l-2.444.244-14.787,1.222a.427.427,0,0,0-.244.122.449.449,0,0,0-.122.367c0,.122,0,.244.122.244a.449.449,0,0,0,.367.122l14.3-.733-5.255,22.242v.367a.263.263,0,0,0,.244.244h.367c.122,0,.122-.122.244-.244l6.6-22.608,25.786-1.222h0l-.122.122-.122.244v.244l-.122.122a.12.12,0,0,1-.122.122l-.244.489c-.122.122-.122.367-.244.489s-.122.244-.244.489-.244.611-.367.855v.122l-3.666.489.122-.244.122-.367.122-.367v-1.222c0-.122-.122-.122-.122-.244l-.244-.244a.449.449,0,0,0-.367-.122h-.733c-.122,0-.122.122-.244.122l-.122.122a.12.12,0,0,0-.122.122l-.122.122a8.055,8.055,0,0,0-1.344,2.933,1.55,1.55,0,0,0-.733.122h0a.263.263,0,0,0-.244.244c-.489.489.122,1.1.611.978a16.284,16.284,0,0,1-.611,2.322c-.122.244-.122.489-.244.733l-.367.733-.122.122v.244l-.122.367-.244.367-.244.367-.244.367a5.311,5.311,0,0,0-.489.855l-.489.733-.489.733c-.122.122-.244.244-.244.367-.122.122-.244.244-.244.367l-.611.733c-.244.244-.367.489-.611.611-.122.122-.244.244-.367.244-.122.122-.244.122-.367.244l-.122.122-.122.122h-.367V117l.122-.367.122-.367h.122c.122,0,.122.122.244.122h.244a.449.449,0,0,0,.367-.122l.367-.122.244-.244.244-.244.244-.244.244-.244a2.661,2.661,0,0,0,.611-.978v-.244l.122-.244c.122-.122.122-.367.244-.489l.122-.244c0-.122,0-.122.122-.244,0-.244.122-.367.122-.489s0-.122.122-.244l.122-.244v-1.589l-.122-.244-.122-.122v-.122l-.122-.122-.367-.367c-.122-.122-.244-.122-.489-.244h-.855a.635.635,0,0,0-.489.244c-.122,0-.122.122-.244.122l-.122.122c-.122.122-.244.122-.244.244l-.244.244-.244.244-.122.244-.122.244c-.122.122-.122.367-.244.489s-.122.367-.244.489c-.122.367-.367.855-.489,1.344-.122.244-.367.489-.489.733l-1.467,2.2a2.557,2.557,0,0,1-.489.733c-.122.244-.367.489-.489.733l1.833-6.6h0v-.489l-.367-.367h-.489l-.367.367h0l-.244-.122-.244-.122H156.7c-.122,0-.122,0-.244.122-.122,0-.122,0-.244.122l-.122.122-.244.122-.122.122-.122.122-.122.122-.122.122-.244.244-.367.611c-.122.122-.122.367-.244.489l-.244.611c0,.122-.122.244-.122.367l-.122.122-.367.367-.244.122-.244.122h-.489v-.122h0c0-.122.122-.244.122-.367s.122-.244.122-.489l.122-.489v-1.467c0-.122,0-.122-.122-.244v-.122a1.164,1.164,0,0,0-.244-.855.871.871,0,0,0-.733-.367H151.2l-.244.122c-.122,0-.122,0-.244.122-.122,0-.122.122-.244.122l-.122.122-.244.244-.122.122-.122.122-.244.244c0,.122-.122.122-.122.244s-.122.122-.122.244a7.255,7.255,0,0,0-.489.978l-.367.978-.367.978c0,.122,0,.244-.122.244v.244l-.122.489v.978a.916.916,0,0,0,.122.611,1107.7,1107.7,0,0,1,.244.244c.122.122.122.244.244.367a10940.968,10940.968,0,0,0,.489.244c.122,0,.244.122.367.122h.367a.449.449,0,0,0,.367-.122l.244-.122c.122,0,.122-.122.244-.122l.489-.367.367-.367.367-.367c.122-.122.122-.244.244-.367s.122-.244.244-.367h0c.122,0,.367.122.489.122h.489a.449.449,0,0,0,.367-.122l-.122.489v.367c0,.122,0,.244-.122.244v1.344a.378.378,0,0,0,.122.244l.122.122.122.122.122.122a.12.12,0,0,1,.122.122h.244c.122,0,.122,0,.244-.122l.244-.122.122-.122.122-.122.122-.122-4.277,12.221v.122h0v.122a1.044,1.044,0,0,0,0,.855,1.472,1.472,0,0,0,.611.611,1.044,1.044,0,0,0,.855,0,1.473,1.473,0,0,0,.611-.611h0l.122-.244h0l.122-.367.244-.611.367-1.222.855-2.444c.367-.855.611-1.589.978-2.444s.733-1.589,1.1-2.322.733-1.589,1.1-2.322a21.234,21.234,0,0,1,1.222-2.322c0-.122.122-.122.122-.244v1.711l.122.367.122.122a.12.12,0,0,0,.122.122l.122.122.122.122c.122.122.244.244.367.244s.244.122.367.122h.733l.244-.122.244-.122.244-.122c.244-.244.611-.489.855-.733l.367-.367.367-.367.367-.367.367-.367.611-.733c.122-.122.244-.244.244-.367.122-.122.244-.244.244-.367a1.97,1.97,0,0,0,.489-.855c0-.122.122-.122.122-.244v.244l-.244,1.222c-.122.367-.122.733-.244,1.1s-.122.855-.244,1.222a1.1,1.1,0,0,1-.122.611c-.122.244,0,.367,0,.611v1.955c0,.122.122.122.244.244l.122.122c.122,0,.122.122.244.122h.367c.122,0,.122,0,.244-.122.122,0,.244-.122.367-.244s.367-.244.489-.489l.244-.244.244-.244c.122-.122.244-.367.367-.489l.367-.489.611-.978a1.687,1.687,0,0,1,.367-.489c.122-.122.244-.367.367-.489l.244-.489.244-.489,1.1-2.078.489-1.1.367-.733a.12.12,0,0,0,.122-.122l.367-.367-.244.978c-.122.611-.244,1.1-.367,1.711s-.244,1.1-.367,1.711c-.122.244-.122.611-.244.855s-.122.611-.244.855a.924.924,0,0,1-.122.489c0,.122-.122.244-.122.489v1.466c0,.122.122.122.244.244h.367a.263.263,0,0,0,.244-.244c.244-.244.367-.611.611-.855a6.822,6.822,0,0,0,.611-.978l1.1-1.833,1.1-1.833a2.67,2.67,0,0,1,.367-.611,2.145,2.145,0,0,1,.489-.611l-.244,1.711-.122.978v.978c0,.244,0,.367.244.489a.449.449,0,0,0,.367.122c.122,0,.244-.122.367-.244l1.833-2.444v2.689l.122.367.122.122a.12.12,0,0,0,.122.122l.122.122.122.122c.122.122.244.244.367.244s.244.122.367.122h.733l.244-.122.244-.122.244-.122c.244-.244.611-.489.855-.733l.367-.367.367-.367.367-.367.367-.367.611-.733c.122-.122.244-.244.244-.367.122-.122.244-.244.244-.367a1.97,1.97,0,0,0,.489-.855,2.557,2.557,0,0,1,.489-.733.449.449,0,0,1-.122.367l-.244,1.222c0,.244-.122.367-.122.611s-.122.367-.122.611-.122.367-.122.611a1.55,1.55,0,0,1-.122.733h0a.449.449,0,0,0,.122.367l.244.244a.229.229,0,0,0,.367,0,.263.263,0,0,0,.244-.244c.367-.611.855-1.222,1.222-1.833.244-.244.489-.611.733-.855a5.313,5.313,0,0,0,.733-.855l.489-.489c.122-.122.244-.367.489-.489v.611l.122.244c0,.122.122.122.122.244l.244.244h.489a2.574,2.574,0,0,0,1.589-.611,9.769,9.769,0,0,0,1.589-1.589l.367-.489.122-.244.244-.244h0c.122-.122.122-.122.122-.244v-.122a.553.553,0,1,0-1.1-.122h0v.244l-.122.244-.244.489a2.557,2.557,0,0,1-.489.733c-.122.244-.367.367-.611.611-.244.122-.367.244-.611.367a.735.735,0,0,1-.489.122h-.122v-.367c0-.122,0-.122.122-.244a.379.379,0,0,1,.122-.244.926.926,0,0,1,.244-.489c.122-.244.367-.611.489-.855a.427.427,0,0,0,.122-.244c0-.122.122-.122.122-.244h0c0-.122.122-.122.122-.244l.122-.122.244-.244a1.1,1.1,0,0,0,.122-.611.635.635,0,0,0-.244-.489,1.056,1.056,0,0,0-.733-.367,1.163,1.163,0,0,0-.855.244h0l-.122.122-.122.122-.244.244-.489.367c-.122.122-.244.367-.367.489a1.688,1.688,0,0,0-.367.489c-.244.367-.611.611-.855.978s-.489.611-.733.978l.122-.244a8.425,8.425,0,0,1,.489-1.222,12.686,12.686,0,0,0,.489-1.222l.489-1.222.244-.611.244-.611.122-.244a.808.808,0,0,0-.122-.733.955.955,0,0,0-.489-.489,1.044,1.044,0,0,0-.855,0,1,1,0,0,0-.611.611l-.122.244h0v.122l-1.589,3.3c-.122,0-.122.122-.122.244h0v.122l-.122.367-.244.367-.244.367-.244.367a5.316,5.316,0,0,0-.489.855l-.489.733-.489.733c-.122.122-.244.244-.244.367-.122.122-.244.244-.244.367l-.611.733c-.244.244-.367.489-.611.611-.122.122-.244.244-.367.244-.122.122-.244.122-.367.244l-.122.122-.122.122h-.367V117l.122-.489.122-.367h.122c.122,0,.122.122.244.122h.244a.449.449,0,0,0,.367-.122l.244-.122.244-.244.244-.244.244-.244.244-.244a2.661,2.661,0,0,0,.611-.978v-.244l.122-.244c.122-.122.122-.367.244-.489l.122-.244c0-.122,0-.122.122-.244,0-.244.122-.367.122-.489s0-.122.122-.244l.122-.244v-1.589l-.122-.244-.122-.122v-.122l-.122-.122-.367-.367c-.122-.122-.244-.122-.489-.244h-.855a.635.635,0,0,0-.489.244c-.122,0-.122.122-.244.122l-.122.122c-.122.122-.244.122-.244.244l-.244.244-.244.244-.122.244-.122.244c-.122.122-.122.367-.244.489s-.122.367-.244.489a5.955,5.955,0,0,0-.489,1.344l-1.222,1.589v-.122c0-.244.122-.367.122-.489s.122-.367.122-.489l.122-.611.122-.611v-1.589a.12.12,0,0,0-.122-.122l-.122-.122a.427.427,0,0,0-.244-.122c-.122,0-.122-.122-.244-.122h-.611c-.122,0-.122.122-.244.122l-.122.122-.122.122-.122.122-.244.244-.244.244-.367.489-.122.244c0,.122-.122.122-.122.244a10943.239,10943.239,0,0,0-.489.978l.978-3.055C176.006,109.788,176.251,109.177,176.373,108.688Zm-14.787,5.988.122-.367.122-.367.244-.367c.122-.122.122-.244.244-.367s.122-.244.244-.367v.733h0v.122a.449.449,0,0,1-.122.367c0,.122-.122.244-.122.367s-.122.244-.244.367a.263.263,0,0,1-.244.244h0v-.367Zm-10.266,0a.449.449,0,0,1-.122.367c0,.122-.122.244-.122.367-.122.122-.122.244-.244.367l-.244.367-.122.244-.122.122-.244.244c-.122.122-.122.122-.244.122h-.367v-1.466c0-.122,0-.122.122-.244l.122-.244.122-.244.122-.244a5.958,5.958,0,0,0,.367-.855c.122-.122.122-.244.244-.367s.122-.244.244-.367h0l.244-.244c0-.122.122-.122.122-.244h0v.367a5.293,5.293,0,0,0,.122.611c0,.244.122.367.122.489A8.412,8.412,0,0,0,151.32,114.676Zm5.5-.733c-.122.244-.244.611-.367.855l-.489.978a12506.763,12506.763,0,0,1-.489.978l-.367.367-.367.367a.12.12,0,0,1-.122.122V117c0-.122.122-.367.122-.489a.927.927,0,0,1,.244-.489l.244-.489.244-.489c.122-.122.122-.367.244-.489s.122-.244.244-.489a.635.635,0,0,0,.244-.489c.122-.122.244-.244.244-.367l.244-.367c.122,0,.122.122.367.122A2.877,2.877,0,0,1,156.819,113.943Zm23.831.733.122-.367.122-.367.244-.367c.122-.122.122-.244.244-.367s.122-.244.244-.367v.733h0v.122a.449.449,0,0,1-.122.367c0,.122-.122.244-.122.367s-.122.244-.244.367a.263.263,0,0,1-.244.244h0v-.122h0v-.244Zm-6.233-7.577-.855,1.589-.367.733c0,.122-.122.244-.244.367s-.122.244-.244.367a5.955,5.955,0,0,0-.367.855l-.367.733-.122.122-.122.244-.122.244-.244.489-.489,1.1a350139.4,350139.4,0,0,1-.978,1.955l-.244.489-.367.489-.611.978-.611.978-.367.489-.367.367-.244.244-.244.244-.244.244-.244.122h-.122v-.978a1.1,1.1,0,0,1,.122-.611c0-.244.122-.367.122-.611s.122-.367.122-.611l.122-.611.122-.244.122-.244.122-.611.122-.611.122-.611c.122-.122.122-.367.244-.489.122-.244.122-.367.244-.611l.367-1.1.367-1.1.367-1.1.367-1.1c0-.122.122-.244.122-.367s.122-.244.122-.367l.367-.489.244-.489.122-.244v-.122a.12.12,0,0,1,.122-.122l3.788-.489Z" transform="translate(-133.6 -99.4)"/>
        <path id="Path_2703" data-name="Path 2703" class="cls-4" d="M154.326,116.978h0c-.122-.122-.367-.122-.367,0a2.171,2.171,0,0,0-.489,1.222c-.244.733-.733,3.3,0,3.3.489,0,1.222-1.344,1.222-1.711-.244,2.2.855,1.466,1.1.855a21.29,21.29,0,0,0,.611-2.689s.122.244.244.244h.367a5.259,5.259,0,0,0,0,1.955c.122.367.855.367,1.1.244a2.885,2.885,0,0,0,.978-1.1,9.113,9.113,0,0,0,.855-1.466c.122-.244.244-.367.367-.611.122-.122.244-.367,0-.489s-.367.244-.367.367c-.122.367-.367.733-.489,1.1-.122.244-1.222,2.2-1.589,1.589a.735.735,0,0,1-.122-.489,1.218,1.218,0,0,1,.122-.489v-.122a.81.81,0,0,0,.855-.244c.122-.244.244-.611.367-.855a2.082,2.082,0,0,0,0-1.222q0-.183-.367-.367a1.1,1.1,0,0,0-.611.122,3.163,3.163,0,0,0-.855,1.344h0l-.367.367a2.69,2.69,0,0,1,.122-.978c0-.244.122-.489-.122-.489-.367-.122-.611.978-.733,1.222-.122.489-.244.978-.367,1.344a8.145,8.145,0,0,1-.367.855c-.122,0,.122-.611.244-.978a3.568,3.568,0,0,0,.244-1.1c-.122-.244-.367-.122-.489.122a4.34,4.34,0,0,0-.489,1.1,4.438,4.438,0,0,1-.367.855s-.244.489-.367.367c-.367-.122.489-1.711.611-2.689A1.715,1.715,0,0,1,154.326,116.978Zm3.3.611c0-.122.122-.244.122-.367a.12.12,0,0,1,.122-.122l.122-.122.122-.122a.12.12,0,0,1,.122-.122v1.222a.449.449,0,0,1-.122.367l-.122.122v.122h0V118.2h0v-.244C157.625,117.833,157.625,117.711,157.625,117.589Z" transform="translate(-129.273 -95.714)"/>
        <path id="Path_2704" data-name="Path 2704" class="cls-4" d="M170.244,125.344a.635.635,0,0,0-.244.489v.978c.122.122.122.244.244.244a.372.372,0,0,0,.489,0q.183,0,.367-.367l.244-.611c0-.122,0-.122.122-.244,0-.244,0-.367-.122-.489a.635.635,0,0,0-.489-.244C170.611,125.1,170.367,125.1,170.244,125.344Z" transform="translate(-125.516 -93.693)"/>
        <path id="Path_2705" data-name="Path 2705" class="cls-4" d="M180.81,127.067c-.122,0-.244-.122-.367,0a.263.263,0,0,0-.244.244v.122l-.122.244-.122.367-.122.367-.122.367c-.122.244-.244.367-.367.611l-.367.611-.367.611c-.122.122-.122.244-.244.244a.263.263,0,0,1-.244.244l-.367.489-.244.244-.244.244-.244.244-.244.244a.12.12,0,0,0-.122.122h-.489V131.1l.122-.244h.122c.122,0,.122,0,.244.122h.244a.449.449,0,0,0,.367-.122l.244-.122.244-.122.122-.122.122-.122.122-.122.367-.733-.122-.244v-.122l.122-.122a.449.449,0,0,0,.122-.367l.122-.244a.12.12,0,0,1,.122-.122c0-.122.122-.244.122-.367v-1.466l-.122-.244-.122-.122h0l-.244-.244a.449.449,0,0,0-.367-.122h-.611c-.122,0-.244.122-.367.122l-.122.122-.122.122c-.122,0-.122.122-.244.244l-.122.122a.427.427,0,0,0-.122.244l-.122.122-.122.244c-.122.122-.122.244-.244.367a.427.427,0,0,1-.122.244c-.122.122-.244.367-.367.489-.122.244-.367.489-.489.733-.122.122-.244.367-.367.489s-.244.367-.367.489a.449.449,0,0,1-.122-.367c0-.122-.122-.367-.122-.489s-.122-.367-.122-.489a.735.735,0,0,0-.122-.489v-.611l.733-.489.122-.122a.735.735,0,0,0,.122-.489c0-.122-.122-.367-.244-.367l-.367-.244a.449.449,0,0,0-.367-.122h-.489c-.122,0-.244.122-.367.244s-.244.122-.244.244l-.122.122-.122.122-.122.244c0,.122,0,.122-.122.244v1.833a7.785,7.785,0,0,1,.244.855h0c-.122,0-.122.122-.244.122,0,.122-.122.122-.122.244s-.122.122-.122.244l-.122.122-.122.122-.122.244-.122.122-.122.122-.122.244-.122.244-.367.489-.122.244-.122.244-.244.244-.122.244-.244.244-.122.122v-.244c0-.122,0-.122.122-.244l.122-.244.122-.244.122-.244c0-.122.122-.122.122-.244s0-.122.122-.244c0-.122.122-.122.122-.244s0-.122.122-.244v-.367h0v-.122a.12.12,0,0,1,.122-.122v-.122a1.1,1.1,0,0,0-.122-.611.635.635,0,0,0-.489-.244c-.244,0-.367,0-.489.122a.635.635,0,0,0-.244.489v.489l-.122.611-.122,1.1v1.833h0v.244h0a.12.12,0,0,1,.122.122h.367l.122-.122.122-.122.122-.122c0-.122.122-.122.122-.244s.122-.122.122-.244l.367-.489.367-.489.489-.733.122-.244.122-.244.122-.122.122-.122.122-.122a.12.12,0,0,1,.122-.122l.122-.122.122-.122c0-.122.122-.122.244-.244l.122-.122a.12.12,0,0,0,.122.122c.122.122.122.367.244.489l.122.122v.122h0l.122.244v.122l-.611.855c-.122.122-.122.244-.244.367s-.122.244-.244.367c-.122.244-.367.611-.489.855h0v.367l.244.244h.489l.122-.122.244-.122c.122,0,.122-.122.244-.122s.122-.122.244-.244.367-.244.489-.367l.244-.244c.122-.122.122-.244.244-.244a.449.449,0,0,0,.122-.367c0-.122.122-.244.122-.367a1.55,1.55,0,0,0,.122-.733V131.1c.122-.244.367-.367.489-.611v2.2l.122.244v.244a.12.12,0,0,0,.122.122l.122.122.244.244c.122,0,.244.122.367.122h.489l.244-.122.244-.122.122-.122c.244-.122.367-.367.611-.489l.244-.244c.122-.122.122-.244.244-.244.122-.122.122-.244.244-.244l.244-.244.367-.611.244-.244.244-.244c.122-.244.244-.367.367-.611s.244-.367.367-.611l.122-.122a.12.12,0,0,1,.122-.122l.244-.244.244-.367.244-.367h0c0-.122.122-.244,0-.367C181.054,127.189,180.932,127.189,180.81,127.067Zm-4.277,2.444.122-.244.122-.367.122-.367.122-.244.122-.244v-.122h0v.489h0v.122l-.122.244c0,.122,0,.244-.122.244,0,.122-.122.122-.122.244s-.122.122-.122.244h0v-.122h0c0,.367,0,.244-.122.122Z" transform="translate(-125.694 -93.582)"/>
        <path id="Path_2706" data-name="Path 2706" class="cls-4" d="M183.28,138.886h0c-.122,0-.244,0-.244-.122a2.064,2.064,0,0,1-.611-.244c-.489-.122-1.222-.367-2.077-.611s-1.955-.611-3.178-.978-2.689-.855-4.155-1.222c-1.589-.489-3.177-.978-4.888-1.589-.855-.244-1.711-.611-2.689-.855-.244,0-.367-.122-.611-.244,1.344-.733,2.566-1.466,3.911-2.322a52.176,52.176,0,0,0,5.377-3.666c.367-.367.855-.733,1.222-1.1a11.522,11.522,0,0,0,1.222-1.222,15.275,15.275,0,0,0,1.1-1.466,5.615,5.615,0,0,0,.855-1.955,4.581,4.581,0,0,0,.122-1.344,2.563,2.563,0,0,0-.489-1.344,3.293,3.293,0,0,0-.855-.978,6.824,6.824,0,0,0-.978-.611c-.244-.122-.611-.244-.855-.367l-.367-.122h-1.467c-.244,0-.611-.122-.855-.122a8.068,8.068,0,0,0-1.711.122,7.152,7.152,0,0,0-1.589.244,18.879,18.879,0,0,0-2.811.733c-.489.122-.855.244-1.344.367s-.855.244-1.344.367a19.394,19.394,0,0,0-2.444.855c-1.466.489-2.933,1.1-4.155,1.589s-2.322.855-3.177,1.222a7.719,7.719,0,0,1-1.1.489,5.95,5.95,0,0,0-.855.367l-.733.367c-.489.244-.733.855-.489,1.1h0a1.054,1.054,0,0,0,1.344.733,3.94,3.94,0,0,1,.733-.244,7.784,7.784,0,0,1,.856-.244c.367-.122.733-.244,1.222-.367l3.177-.978c1.222-.367,2.566-.855,4.155-1.344.733-.244,1.589-.489,2.322-.733.367-.122.855-.244,1.222-.367s.855-.244,1.344-.367.855-.244,1.344-.367a5.2,5.2,0,0,1,1.344-.244,18.238,18.238,0,0,1,2.566-.244h1.589c.122,0,.244.122.367.122.244.122.367.122.489.244s.244.122.367.244c.122,0,.122.122.244.244v.489c-.122.367-.244.611-.367.978a6.719,6.719,0,0,1-.855,1.1c-.611.733-1.344,1.466-2.077,2.2s-1.589,1.344-2.322,2.077c-.855.611-1.589,1.222-2.444,1.833-1.711,1.222-3.422,2.322-5.011,3.422l-.122.122h-.122a1.116,1.116,0,0,0-.244,1.344l.244.244h.122a.12.12,0,0,1,.122.122h.122l.244.122c.244.122.489.122.733.244l1.466.367c.978.244,1.833.489,2.689.733,1.711.489,3.422.978,5.011,1.344s2.933.855,4.155,1.1c1.222.367,2.322.611,3.177.855s1.589.489,2.077.611a.924.924,0,0,0,.489.122h.122a.465.465,0,1,0,.367-.855Z" transform="translate(-129.753 -95.625)"/>
        <path id="Path_2707" data-name="Path 2707" class="cls-4" d="M161.831,127.78l.244-.611c.122-.244.122-.367.244-.611a3.019,3.019,0,0,1,.489-1.1.427.427,0,0,1,.122-.244c0-.122.122-.122.122-.244.122-.122.122-.244.122-.489a1.737,1.737,0,0,0,.244-.733,5.139,5.139,0,0,1,.244-.611h0c0-.122,0-.122.122-.244a1.366,1.366,0,0,0-2.689-.489,2.139,2.139,0,0,1-.122.611c0,.244-.122.489-.122.733,0,.122-.122.367-.122.489v.244c0,.122,0,.122-.122.244a3.568,3.568,0,0,0-.244,1.1c0,.244-.122.367-.122.611-.122.244-.122.367-.244.611-.122.367-.244.855-.367,1.344a5.958,5.958,0,0,1-.489,1.344l-.122.367c0,.122-.122.244-.122.367-.122.244-.122.489-.244.611a2.064,2.064,0,0,0-.244.611c-.122.244-.122.367-.244.611-.122.367-.367.855-.489,1.222s-.367.733-.489,1.1c-.611,1.344-.978,2.2-.978,2.2-.122.122,0,.367.122.489h0c.122.122.367,0,.489-.122,0,0,.489-.855,1.222-2.078.244-.367.367-.611.611-.978s.367-.733.611-1.1c.122-.244.244-.367.367-.611l.367-.611.367-.611c.122-.122.122-.244.244-.367l.122-.367a6.547,6.547,0,0,0,.611-1.344C161.464,128.636,161.709,128.147,161.831,127.78Z" transform="translate(-128.59 -94.54)"/>
      </g>
    </g>
    <g id="Group_770" data-name="Group 770" transform="translate(205.345 1518.017)">
      <path id="Path_2715" data-name="Path 2715" d="M58.539,94.185,56.8,94.051l.934-8.142A4.02,4.02,0,0,0,53.6,88.178c.133-.4,1.6-5.206,3.871-36.973.8-11.212,7.475-20.422,19.354-26.963C86.836,18.77,100.05,15.7,113.8,15.7h0c13.615,0,26.429,2.937,36.039,8.276,11.479,6.407,18.02,15.75,18.82,27.1,2.269,31.768,3.737,36.573,3.871,36.973a3.9,3.9,0,0,0-4.138-2.269l.934,8.142-3.07-.934c-1.468-1.2-3.07-2.536-5.74-41.378-1.468-19.087-25.227-27.763-46.717-27.763h0c-22.825,0-46.717,9.61-48.185,27.763-2.67,38.842-4.271,40.177-5.74,41.378Z" transform="translate(17.945 5.268)"/>
      <path id="Path_1144_1_" class="cls-5" d="M239.994,196.969H22.826A23.046,23.046,0,0,1,0,173.477a12.95,12.95,0,0,1,.133-2.269L11.48,69.765A35.326,35.326,0,0,1,46.051,40.4H216.369a35.1,35.1,0,0,1,34.571,29.365l11.346,101.443A22.816,22.816,0,0,1,242.8,196.836a19.712,19.712,0,0,1-2.8.133Z" transform="translate(0 13.537)"/>
      <path id="Path_2716" data-name="Path 2716" class="cls-6" d="M205.516,19.5h0a9.335,9.335,0,0,0-9.744,2.136,29.966,29.966,0,0,0-14.549-12.68,28.723,28.723,0,0,0-19.755-.133,8.673,8.673,0,0,0-5.74-8.276A9.112,9.112,0,0,0,147.72,16.83a33.728,33.728,0,0,0-9.744,13.481,22.823,22.823,0,0,0,3.6,23.225c-10.411-1.2-20.022-2.269-21.623-1.468-3.6,2-1.6,16.952,3.737,16.818a61.018,61.018,0,0,0,12.013-3.07c-2,2-5.473,3.47-6.273,5.606-3.47,8.676-3.2,14.816,2,19.621L160.4,103.057c8.276.534,13.348-3.6,17.085-13.348,1.068-2.67-.667-6.674-.934-10.144,4.271,7.074,7.875,12.814,9.21,13.481,3.6,2,15.483-7.074,12.28-11.479-1.335-1.869-9.077-7.208-17.219-13.081A22.96,22.96,0,0,0,199.109,53.67a35.89,35.89,0,0,0,1.869-16.818,9.243,9.243,0,0,0,9.744-5.74h0A9.081,9.081,0,0,0,205.516,19.5Z" transform="translate(39.55 0)"/>
      <path id="Path_2717" data-name="Path 2717" d="M160.183,46.114a15.161,15.161,0,0,1-5.606.534l1.6-4h.133a3.7,3.7,0,0,0,1.2-.133,4.447,4.447,0,0,0,3.07-2.269v-.133a2.317,2.317,0,0,0-.133-2.269c-1.068-1.6-4.805-3.07-6.807-2.937a2.483,2.483,0,0,0-2.269,1.335l-.133.4a4.956,4.956,0,0,0,1.869,4.939l-1.468,3.871a13.763,13.763,0,0,1-3.6-4L145.5,43.178c1.335,2.136,4,5.473,6.273,5.473h0a4.883,4.883,0,0,0,3.737,1.2,17.772,17.772,0,0,0,5.206-.8Z" transform="translate(48.711 11.694)"/>
      <path id="Path_2718" data-name="Path 2718" d="M168.47,33.3a2.67,2.67,0,1,0,2.67,2.67A2.768,2.768,0,0,0,168.47,33.3Z" transform="translate(55.507 11.16)"/>
      <path id="Path_2719" data-name="Path 2719" d="M143.07,25.5a2.67,2.67,0,1,0,2.67,2.67A2.677,2.677,0,0,0,143.07,25.5Z" transform="translate(47.004 8.549)"/>
      <path id="Path_1152_1_" class="cls-7" d="M239.993,192.852H22.825C9.344,192.852-1.334,182.04.134,169.76L11.48,79C14.55,63.645,29.1,52.7,46.05,52.7H216.368c17.085,0,31.768,11.212,34.571,26.3l11.346,90.765C264.153,182.04,253.475,192.852,239.993,192.852Z" transform="translate(0.001 17.655)"/>
      <path id="Path_2720" data-name="Path 2720" d="M243.32,94.476H186.592c-.667-3.6-1.735-12.68-3.337-34.7-.8-11.346-7.208-20.689-18.687-27.1-9.61-5.339-22.291-8.276-35.772-8.276h0c-13.748,0-26.7,3.07-36.706,8.543C80.344,39.35,73.8,48.693,73,59.905c-1.6,22.024-2.67,31.1-3.337,34.7H13.338a4.138,4.138,0,1,0,0,8.276h59.4l1.6.133.133-.133H243.453a4.159,4.159,0,0,0,4.138-4.138A4.3,4.3,0,0,0,243.32,94.476ZM81.411,60.306c1.335-18.286,24.827-27.763,47.518-27.763h0c21.356,0,44.849,8.676,46.183,27.763,1.335,18.687,2.4,28.7,3.2,34.17H78.075C79.009,89,80.077,78.992,81.411,60.306Z" transform="translate(3.081 8.18)"/>
      <path id="Path_2721" data-name="Path 2721" class="cls-8" d="M110.243,111.125a12.619,12.619,0,0,0-13.481.534,16,16,0,0,0-1.6,1.468,7.979,7.979,0,0,0-3.6,4.138c0,.133-.133.133-.133.267a5.76,5.76,0,0,0-1.735,2.937h0c-2.536,10.812,9.21,18.02,18.553,13.481C117.051,129.678,119.587,116.464,110.243,111.125Z" transform="translate(29.909 36.647)"/>
      <path id="Path_2722" data-name="Path 2722" class="cls-8" d="M109.592,112.787c-.133,0-.267,0-.267-.133a.406.406,0,0,1,0-.534,52.372,52.372,0,0,1,8.543-5.606c.133-.133.4,0,.534.133s0,.4-.133.534a57.592,57.592,0,0,0-8.409,5.606A.185.185,0,0,0,109.592,112.787Z" transform="translate(36.567 35.652)"/>
      <path id="Path_2723" data-name="Path 2723" class="cls-8" d="M120.743,118.1H112.6a.4.4,0,1,1,0-.8h8.142a.4.4,0,0,1,0,.8Z" transform="translate(37.563 39.281)"/>
      <path id="Path_2724" data-name="Path 2724" class="cls-8" d="M120.779,129.574c-.133,0-.133,0-.267-.133A16.11,16.11,0,0,0,110.1,126.5h0a.426.426,0,0,1-.4-.4.354.354,0,0,1,.4-.4,17.22,17.22,0,0,1,10.812,3.2c.133.133.267.4.133.534A.466.466,0,0,0,120.779,129.574Z" transform="translate(36.726 42.091)"/>
      <path id="Path_2725" data-name="Path 2725" class="cls-8" d="M108.406,136.541c-.133,0-.267,0-.267-.133A9.108,9.108,0,0,1,106,130a.4.4,0,1,1,.8,0,8.4,8.4,0,0,0,1.869,5.873.406.406,0,0,1,0,.534C108.673,136.541,108.54,136.541,108.406,136.541Z" transform="translate(35.484 43.399)"/>
      <path id="Path_2726" data-name="Path 2726" class="cls-8" d="M98.8,137.607a.354.354,0,0,1-.4-.4V131.2a.4.4,0,1,1,.8,0v6.007C99.067,137.34,98.934,137.607,98.8,137.607Z" transform="translate(32.943 43.801)"/>
      <path id="Path_2727" data-name="Path 2727" class="cls-8" d="M87.581,137.657h-.133c-.133-.133-.267-.267-.133-.534a61.553,61.553,0,0,1,5.072-8.676c.133-.133.4-.267.534-.133s.267.4.133.534a68.546,68.546,0,0,0-5.072,8.543C87.848,137.657,87.714,137.657,87.581,137.657Z" transform="translate(29.214 42.95)"/>
      <path id="Path_2728" data-name="Path 2728" class="cls-8" d="M82.714,126.37c-.133,0-.267-.133-.4-.267s0-.4.267-.534a38.058,38.058,0,0,1,6.674-1.869c.267,0,.4.133.4.267,0,.267-.133.4-.267.4-2.136.667-4.4,1.2-6.674,2Z" transform="translate(27.54 41.424)"/>
      <path id="Path_2729" data-name="Path 2729" class="cls-8" d="M90.191,119.02h-.133c-1.735-1.068-3.07-1.6-4.271-2.269a21.046,21.046,0,0,1-5.339-3.07c-.133-.133-.267-.4-.133-.534s.4-.267.534-.133a24.182,24.182,0,0,0,5.206,2.937,47.679,47.679,0,0,1,4.4,2.269c.133.133.267.4.133.534C90.458,119.02,90.325,119.02,90.191,119.02Z" transform="translate(26.87 37.828)"/>
      <path id="Path_2730" data-name="Path 2730" class="cls-8" d="M92.866,114.836c-.133,0-.133,0-.267-.133a41.026,41.026,0,0,1-3.871-4.805,28.228,28.228,0,0,0-3.2-4.138.378.378,0,0,1,.534-.534A44.262,44.262,0,0,1,89.4,109.5a30.319,30.319,0,0,0,3.6,4.672.8.8,0,0,1,.133.534A.466.466,0,0,0,92.866,114.836Z" transform="translate(28.6 35.205)"/>
      <path id="Path_2731" data-name="Path 2731" class="cls-8" d="M96.034,109.474a.426.426,0,0,1-.4-.4c-.133-.934-.133-2-.267-2.937s-.133-1.869-.267-2.937a.4.4,0,1,1,.8,0c.133.934.133,2,.267,2.937s.133,1.869.267,2.937a.426.426,0,0,1-.4.4Z" transform="translate(31.839 34.427)"/>
      <path id="Path_2732" data-name="Path 2732" class="cls-8" d="M104.3,109.142h0a.354.354,0,0,1-.4-.4,41.1,41.1,0,0,1,1.068-7.074c0-.267.267-.267.4-.267.267,0,.267.267.267.4a41.609,41.609,0,0,0-1.068,6.941C104.7,109.008,104.434,109.142,104.3,109.142Z" transform="translate(34.785 33.958)"/>
      <path id="Path_2733" data-name="Path 2733" class="cls-9" d="M94.28,122.084c-.133,0-.267,0-.267-.133a3.326,3.326,0,0,1-.4-2.269,2.76,2.76,0,0,1,1.335-1.869,6.509,6.509,0,0,1,.934-.4,3.1,3.1,0,0,1,2.4.534,3.368,3.368,0,0,1,1.335,2v.8a.4.4,0,0,1-.8,0v-.534a2.476,2.476,0,0,0-.934-1.6,2.125,2.125,0,0,0-1.735-.4c-.267,0-.4.133-.667.267a2.067,2.067,0,0,0-1.068,1.468,2.669,2.669,0,0,0,.267,1.735c.133.133,0,.4-.133.534A.413.413,0,0,0,94.28,122.084Z" transform="translate(31.324 39.303)"/>
      <path id="Path_2734" data-name="Path 2734" class="cls-9" d="M100.91,120.381c-.133,0-.4-.133-.4-.267a3.511,3.511,0,0,1,6.941-1.068v1.068c0,.267-.267.267-.4.267-.267,0-.4-.267-.267-.4v-.934a2.7,2.7,0,0,0-5.339.8,1.042,1.042,0,0,1-.534.534Z" transform="translate(33.637 38.87)"/>
      <path id="Path_2735" data-name="Path 2735" class="cls-9" d="M101.586,126.319a6.05,6.05,0,0,1-5.072-2.8c-.133-.133,0-.4.133-.534s.4,0,.534.133a5.373,5.373,0,0,0,5.206,2.4,5.151,5.151,0,0,0,3.871-4.138c0-.267.267-.4.4-.267.267,0,.4.267.267.4a5.685,5.685,0,0,1-4.4,4.805Z" transform="translate(32.293 40.54)"/>
      <path id="Path_1169_1_" class="cls-8" d="M66.227,98.172c-2.4-3.2-6.674-4.138-10.411-4.672a5.687,5.687,0,0,1,2,2.67,16.714,16.714,0,0,0-9.21,1.6,5.687,5.687,0,0,1,2.67,2A73.733,73.733,0,0,0,41,108.716a24.535,24.535,0,0,1,15.35-5.206,2.552,2.552,0,0,0-1.468-3.07,22.517,22.517,0,0,1,6.674,1.068,7.158,7.158,0,0,0-1.468-3.6,32.553,32.553,0,0,1,7.208.133" transform="translate(13.727 31.314)"/>
      <path id="Path_1170_1_" class="cls-10" d="M64.7,95.572a1.952,1.952,0,0,0-2.536,1.068A6.076,6.076,0,0,0,61.1,99.176a2.882,2.882,0,0,0,3.47,3.2c1.468.133,3.07.133,3.737-1.068a3.065,3.065,0,0,0,.534-1.869,3.836,3.836,0,0,0-.4-2.937A4.285,4.285,0,0,0,64.3,95.438" transform="translate(20.456 31.912)"/>
      <path id="Path_2736" data-name="Path 2736" class="cls-10" d="M62.457,96.185c-.133,0-.133,0-.267-.133a17.776,17.776,0,0,0-9.21-3.871c-.267,0-.4-.267-.267-.4,0-.267.267-.4.4-.267a19.79,19.79,0,0,1,9.61,4,.406.406,0,0,1,0,.534A.466.466,0,0,1,62.457,96.185Z" transform="translate(17.631 30.631)"/>
      <path id="Path_2737" data-name="Path 2737" class="cls-10" d="M50.2,92.468a.354.354,0,0,1-.4-.4V91.4a.4.4,0,1,1,.8,0v.667Q50.4,92.468,50.2,92.468Z" transform="translate(16.673 30.477)"/>
      <path id="Path_2738" data-name="Path 2738" class="cls-4" d="M143.272,127.508h-.267a.49.49,0,0,1-.133-.4c-.133,0-.133-.133-.133-.267v-1.735c-1.068-.267-2.136-.4-3.337-.667l-1.2-.133,1.068-.534c.934-.4,1.735-.934,2.67-1.335l.8-.4v-2l.667.934c.133.133.267.4.4.534.267-.133.4-.267.667-.4a19.462,19.462,0,0,1,2.536-.934l.934-.267-.534.934c-.534.934-1.2,2-1.735,2.937.4.4.667.934,1.068,1.335l.667.8-1.068-.267-1.6-.4c-.4.667-.8,1.2-1.2,1.869C143.539,127.508,143.406,127.508,143.272,127.508Zm.133-2.269v.934c.133-.267.4-.534.534-.8C143.806,125.239,143.673,125.239,143.406,125.239Zm1.735-.4a.49.49,0,0,1,.4.133c-.133-.133-.133-.267-.267-.267Zm-1.735-.4c.267.133.667.133.934.267.133-.267.267-.4.4-.667-.133-.133-.267-.267-.267-.4a6.685,6.685,0,0,0-.934-1.068.131.131,0,0,0-.133.133Zm-2.67-.534,2,.4V122.97c-.133,0-.267.133-.4.133Zm3.6-1.735c.267.267.534.667.8.934l.133.133,1.2-2a8.165,8.165,0,0,0-1.6.667C144.74,122.036,144.473,122.036,144.34,122.169Z" transform="translate(46.268 40.152)"/>
      <path id="Path_2739" data-name="Path 2739" class="cls-4" d="M128.206,106.347a.354.354,0,0,1-.4-.4v-1.735a.131.131,0,0,1-.133-.133c-.267-.4-.4-.667-.667-1.068-.667.267-1.468.4-2.136.667l-.934.267.534-.8a14.587,14.587,0,0,0,1.068-2,14.193,14.193,0,0,0-2-2L123,98.606l.8-.133a5.9,5.9,0,0,1,2.937.667c.133-.267.4-.667.534-.934l2.8-4.805.667.267a25.205,25.205,0,0,0-1.735,6.407,7.276,7.276,0,0,0,2.936.133h.267l.133.267a.851.851,0,0,1,0,.8.807.807,0,0,1-.8.4c-.934.267-1.869.534-2.936.8a12.865,12.865,0,0,0,0,3.2c0,.4-.267.667-.4.667Zm-.4-3.47Zm-1.735-1.068a5.8,5.8,0,0,0-.534.934c.267-.133.667-.133.934-.267C126.337,102.21,126.2,102.076,126.07,101.809Zm.4-.667c.267.4.534.667.8,1.068.267,0,.4-.133.667-.133,0-.4.133-.934.133-1.335h0c-.4-.133-.667-.267-1.068-.4C126.737,100.474,126.6,100.875,126.47,101.142Zm2.269-.267c0,.267-.133.667-.133.934.8-.267,1.468-.4,2.269-.667A5.878,5.878,0,0,1,128.74,100.875Zm-3.871-1.6a8.636,8.636,0,0,1,1.068,1.2c.133-.267.267-.4.4-.667C125.8,99.673,125.269,99.406,124.869,99.273Zm2.536.267.8.4c.133-.934.4-1.869.534-2.67a5.512,5.512,0,0,1-.934,1.468Z" transform="translate(41.179 31.28)"/>
      <path id="Path_2740" data-name="Path 2740" class="cls-4" d="M148.8,112.275h-.133c-.133-.133-.267-.267-.133-.534s.4-.667.534-.934c-.133,0-.267-.133-.267-.4v-.267a29.517,29.517,0,0,1-3.337-.667L144.4,109.2l1.068-.4c1.068-.4,2-.667,2.936-.934.133,0,.267,0,.267-.133,0-.534-.133-1.2-.133-1.735l-.133-1.2.8.934a14.185,14.185,0,0,1,1.2,1.468,2.475,2.475,0,0,1,.934-.267l.934-.4-.534.934c-.134.267-.4.667-.534.934a9.354,9.354,0,0,0,1.068,1.335l.4.534H150.14c-.4.534-.667,1.2-1.068,1.735A.287.287,0,0,1,148.8,112.275Zm1.735-2.8h.8c-.133-.133-.267-.4-.4-.534C150.807,109.071,150.673,109.338,150.54,109.472Zm-1.068,0h.134a.131.131,0,0,1,.133-.133c.267-.4.4-.667.667-1.068L150.14,108c-.267.133-.4.133-.667.267Q149.472,108.871,149.472,109.472Zm-2.67-.4a10.472,10.472,0,0,0,1.869.267V108.4h-.133A6.7,6.7,0,0,1,146.8,109.071Zm2.536-2v.4c.133,0,.133,0,.267-.133C149.606,107.2,149.472,107.2,149.339,107.069Z" transform="translate(48.343 35.097)"/>
      <path id="Path_1176_1_" class="cls-11" d="M130.539,149.559a10.874,10.874,0,0,1-1.2-7.074,7.644,7.644,0,0,1,4.271-5.606,10.9,10.9,0,0,1,5.072-.667,11.482,11.482,0,0,1,2.136.133,6.036,6.036,0,0,1,2.937,2.536,12.12,12.12,0,0,1,2.136,7.341,7.1,7.1,0,0,1-4.138,6.14,11.055,11.055,0,0,1-4.138.534,6.752,6.752,0,0,1-4.271-.934c-1.468-1.2-2.8-2.4-2.8-2.4" transform="translate(43.25 45.597)"/>
      <path id="Path_2741" data-name="Path 2741" class="cls-8" d="M129.711,154.324h-.8l-.133-.133c-1.2-1.735,1.468-4.271,2.136-4.805.267-.267.534-.267.667,0,.267.267,0,.534-.267.8-.133.133-.133.133-.267.133a7.12,7.12,0,0,0-1.735,2.536.84.84,0,0,0,0,.8,7.9,7.9,0,0,0,5.339-1.6A43.144,43.144,0,0,0,147.6,140.443a5.8,5.8,0,0,0,1.2-2.8c0-.4,0-.4-.133-.4a.585.585,0,0,0-.4-.133,5.912,5.912,0,0,0-4.4,1.468.378.378,0,1,1-.534-.534,6.3,6.3,0,0,1,4.939-1.735,1,1,0,0,1,1.2,1.2,6.125,6.125,0,0,1-1.335,3.337,40.884,40.884,0,0,1-13.081,11.746A9.772,9.772,0,0,1,129.711,154.324Z" transform="translate(43.01 45.637)"/>
      <path id="Path_2742" data-name="Path 2742" class="cls-8" d="M130.642,149.716a10.779,10.779,0,0,1-4.538-1.068h-.133v-.133a1.228,1.228,0,0,1-.133-1.335c.534-1.6,3.6-2.8,4-2.937.133-.133.4,0,.534.267.133.133,0,.4-.267.534-.8.267-3.2,1.335-3.47,2.536-.133.267,0,.4,0,.667a9.075,9.075,0,0,0,5.606.8,42.353,42.353,0,0,0,16.418-5.74,5.655,5.655,0,0,0,2.4-2.269.49.49,0,0,0,.133-.4l-.133-.133c-.133,0-.133-.133-.267-.133a4.951,4.951,0,0,0-4.538-.267c-.133.133-.4,0-.534-.267-.133-.133,0-.4.267-.534a5.955,5.955,0,0,1,5.206.4h.133l.133.133a.887.887,0,0,1,.534.667,1.271,1.271,0,0,1-.267.934,6.592,6.592,0,0,1-2.67,2.4,41.452,41.452,0,0,1-16.685,5.74A7.051,7.051,0,0,1,130.642,149.716Zm20.556-9.21Z" transform="translate(42.08 46.508)"/>
      <path id="Path_1179_2_" class="cls-12" d="M52.11,139.949a11.352,11.352,0,0,0-8.81,9.877,91.345,91.345,0,0,0,22.558-1.6A40.972,40.972,0,0,0,85.879,138.08c.934-.934,2-2.136,1.6-3.47-.534-1.869-2.937-2.136-4.939-2a29.751,29.751,0,0,0-3.6.4" transform="translate(14.497 44.396)"/>
      <path id="Path_2743" data-name="Path 2743" class="cls-8" d="M47.939,150.432c-1.468,0-3.07,0-4.538-.133H43v-.4a11.645,11.645,0,0,1,9.076-10.278c.267,0,.4.133.4.267,0,.267-.133.4-.267.4a10.937,10.937,0,0,0-8.543,9.21,101.434,101.434,0,0,0,22.024-1.6,41.035,41.035,0,0,0,19.755-10.011c.8-.8,1.869-2,1.468-3.07-.534-1.869-3.6-1.735-4.538-1.735a8.207,8.207,0,0,1-1.869.133c-.667,0-1.2.133-1.735.133-.133,0-.4-.133-.4-.267s.133-.4.267-.4a8.208,8.208,0,0,1,1.869-.133c.534,0,1.2-.133,1.735-.133,2.8-.267,4.805.534,5.339,2.269.4,1.468-.667,2.8-1.735,3.737a41.979,41.979,0,0,1-20.155,10.144A77.812,77.812,0,0,1,47.939,150.432Z" transform="translate(14.397 44.324)"/>
      <path id="Path_1180_2_" class="cls-13" d="M87.749,134.2c.534,8.142-7.074,15.617-14.549,18.553-7.742,2.937-16.418,1.869-24.159-1.068-2.136-.667-4.271-1.869-6.54-2.67C42.5,149.149,80.541,152.486,87.749,134.2Z" transform="translate(14.229 44.939)"/>
      <path id="Path_2744" data-name="Path 2744" class="cls-8" d="M63.389,154.956a41.3,41.3,0,0,1-14.416-2.8,40.766,40.766,0,0,1-4.271-1.735c-.667-.267-1.468-.667-2.136-.934h0c-.133-.133-.267-.267-.267-.4s0-.267.133-.267a.25.25,0,0,1,.4,0c.934.133,37.774,3.2,44.715-14.549,0-.133.267-.267.4-.267s.267.133.267.4c.534,8.409-7.208,16.017-14.816,18.954A33.333,33.333,0,0,1,63.389,154.956ZM44.7,149.617h0a30.119,30.119,0,0,0,4.4,1.735c6.14,2.269,15.216,4.271,23.893,1.068,8.943-3.337,13.748-10.678,14.282-16.418C79.807,150.418,52.711,150.017,44.7,149.617Z" transform="translate(14.162 44.872)"/>
      <path id="Path_2745" data-name="Path 2745" class="cls-8" d="M46.438,144.57h-1.2L45.1,144.3v-.4a2.57,2.57,0,0,1,2.4-2.8h.4v.4a4.107,4.107,0,0,1-.8,2.536c-.133.133-.133.133-.267.133A.354.354,0,0,1,46.438,144.57Zm-.534-.8h.534c0-.133,0-.133.133-.267a4.111,4.111,0,0,0,.667-1.6A2.007,2.007,0,0,0,45.9,143.77Z" transform="translate(15.097 47.249)"/>
      <path id="Path_2746" data-name="Path 2746" class="cls-8" d="M55.481,143.9a1.675,1.675,0,0,1-1.468-.8v-.133a1.956,1.956,0,0,1,.267-1.468,1.154,1.154,0,0,1,.8-.4.466.466,0,0,1,.267.133,1.693,1.693,0,0,1,.8.133c.267,0,.534.133.8.133h.267l.133.133a1.008,1.008,0,0,1,.133,1.068,1.894,1.894,0,0,1-1.2,1.068A1.984,1.984,0,0,1,55.481,143.9Zm-.8-1.2a1.076,1.076,0,0,0,1.2.4,1.609,1.609,0,0,0,.667-.667v-.267a1.2,1.2,0,0,1-.667-.133c-.267,0-.534-.133-.8-.133-.133,0-.267,0-.267-.133l-.133.133C54.681,142.168,54.681,142.568,54.681,142.7Z" transform="translate(18.066 47.249)"/>
      <path id="Path_2747" data-name="Path 2747" class="cls-8" d="M66.238,141.77a1.929,1.929,0,0,1-.934-.267,1.739,1.739,0,0,1-.534-2.4c.133-.133.4-.267.534-.133s.133.133.133.267a2.036,2.036,0,0,1,2.136-.4h.133v.133a1.815,1.815,0,0,1,0,2A1.844,1.844,0,0,1,66.238,141.77Zm-1.068-2a1.076,1.076,0,0,0,.4,1.2,1.218,1.218,0,0,0,1.468-.267.807.807,0,0,0,0-1.068,1.644,1.644,0,0,0-1.335.267c0,.133-.267.133-.534-.133Z" transform="translate(21.592 46.446)"/>
      <path id="Path_2748" data-name="Path 2748" class="cls-8" d="M73.394,136.583a4.743,4.743,0,0,1-1.335-.267h-.133v-.133a1.535,1.535,0,0,1,.667-1.869c.133-.133.4,0,.534.133v.267a2.872,2.872,0,0,0,1.068,0h.133l.133.133a.981.981,0,0,1,.267.8,1.319,1.319,0,0,1-.934.934h-.4Zm-.934-.8a2.939,2.939,0,0,0,1.068.133,1.653,1.653,0,0,0,.4-.267,4.541,4.541,0,0,1-1.335-.133C72.46,135.515,72.46,135.649,72.46,135.782Z" transform="translate(24.046 44.959)"/>
      <path id="Path_2749" data-name="Path 2749" class="cls-8" d="M55.258,127.234h0a.354.354,0,0,1-.4-.4,8.555,8.555,0,0,0-1.068-4l-.534-.8.8.267v-.267h-.934l-.133-.133c-.133-.133-.133-.267-.267-.534a1.3,1.3,0,0,1,.133-1.2,1.794,1.794,0,0,1,.934-.8,2.047,2.047,0,0,1,2.269.267l.133.133c.133.133.133.267.133.534a1.126,1.126,0,0,1-.267.934c-.133.133-.4.4-.534.4,0,.133-.133.267-.4.267h-.133c0,.133,0,.133-.133.267a.693.693,0,0,1-.267.534,8.062,8.062,0,0,1,.934,4C55.658,127.1,55.525,127.234,55.258,127.234Zm-1.735-6.007h1.2a.49.49,0,0,1,.4-.133c.133,0,.4-.133.4-.267a.49.49,0,0,0,.133-.4v-.133a1.891,1.891,0,0,0-1.468-.133,1.842,1.842,0,0,0-.534.4c-.267.133-.267.4-.133.667Z" transform="translate(17.622 39.893)"/>
      <path id="Path_1186_2_" class="cls-14" d="M48.537,145.688c0-3.07-.534-6.007-.534-9.076a12.339,12.339,0,0,1,2.67-8.276c2.536-2.67,6.54-3.47,10.144-3.6a9.855,9.855,0,0,1,5.206.534c5.072,2,6.273,8.409,10.678,11.746a27.146,27.146,0,0,1-12.947,7.208,89.982,89.982,0,0,1-14.816,2" transform="translate(16.067 41.726)"/>
      <path id="Path_2750" data-name="Path 2750" class="cls-4" d="M49.038,146.69a.426.426,0,0,1-.4-.4v-.133a.354.354,0,0,1-.4-.4c0-1.468-.133-3.07-.267-4.4-.133-1.468-.267-2.936-.267-4.538a12.463,12.463,0,0,1,2.8-8.543c2.8-3.07,7.208-3.6,10.411-3.737a10.5,10.5,0,0,1,5.339.534c2.937,1.2,4.672,3.871,6.407,6.407a17.172,17.172,0,0,0,4.4,5.339l.4.267-.267.267a27.6,27.6,0,0,1-13.214,7.341,71.845,71.845,0,0,1-14.95,2ZM62.519,125.2a5.006,5.006,0,0,0-1.468.133c-2.937.133-7.208.667-9.877,3.47a11.652,11.652,0,0,0-2.67,8.009c0,1.6.133,3.07.267,4.538s.267,2.937.267,4.538v.133h0a90.342,90.342,0,0,0,14.683-2,26.937,26.937,0,0,0,12.547-6.807A22.793,22.793,0,0,1,72,132.007c-1.735-2.536-3.2-5.072-6.007-6.14A7.679,7.679,0,0,0,62.519,125.2Z" transform="translate(15.967 41.659)"/>
    </g>
  </g>
</svg>
