<svg width="307" height="244" viewBox="0 0 307 244" fill="none" xmlns="http://www.w3.org/2000/svg">
<g clip-path="url(#clip0)">
<path d="M34.4654 228.117L3.87577 182.572L34.4028 233.017L34.339 238.142C36.5722 238.159 38.7836 238.122 40.9734 238.03L39.4562 172.152L39.4978 171.644L39.4418 171.546L39.2966 165.321L72.7959 116.625L39.3362 160.662L39.2174 161.977L38.0715 112.204L67.0058 61.7178L37.989 103.461L38.2919 0.343201L38.2913 0L38.2814 0.337535L36.3607 81.6078L9.99051 48.5958L36.2744 88.6091L35.6988 133.13L11.4328 89.6793L35.6096 139.675L35.2892 164.431L-6.10352e-05 103.905L35.182 173.068L34.4654 228.117Z" fill="#D0CDE1"/>
<path d="M151.472 244C79.8512 244 21.7914 241.038 21.7914 237.384C21.7914 233.73 79.8512 230.768 151.472 230.768C223.092 230.768 281.152 233.73 281.152 237.384C281.152 241.038 223.092 244 151.472 244Z" fill="#D0CDE1"/>
<path d="M75.7001 242.009C73.5321 242.009 71.7747 240.249 71.7747 238.079C71.7747 235.908 73.5321 234.149 75.7001 234.149C77.868 234.149 79.6255 235.908 79.6255 238.079C79.6255 240.249 77.868 242.009 75.7001 242.009Z" fill="#3F3D56"/>
<path d="M75.1652 156.439L85.514 128.928C85.514 128.928 83.9081 123.747 88.1904 124.105C92.4726 124.462 103.892 128.392 103.892 128.392C103.892 128.392 107.817 128.749 102.465 134.287L93.1863 163.406L90.1531 161.977L100.145 133.037C100.145 133.037 100.68 131.072 98.7176 130.536C96.7549 130 89.2609 126.784 88.5472 128.749C87.8335 130.714 78.5553 158.94 78.5553 158.94L75.1652 156.439Z" fill="#3F3D56"/>
<path d="M102.999 175.375L83.0156 235.221C81.3989 236.294 79.6445 237.143 77.8002 237.745C76.1326 238.319 74.4134 238.73 72.6668 238.972C72.0163 239.023 71.3617 238.971 70.7273 238.819C60.4517 236.764 25.2051 217.892 25.2051 217.892C25.2051 217.892 43.2263 161.62 46.2595 154.831C49.2928 148.043 56.073 150.544 56.073 150.544C56.073 150.544 90.3222 159.803 95.2379 161.523C95.3396 161.559 95.4288 161.591 95.5055 161.62C97.6705 162.402 99.54 163.836 100.857 165.727L100.858 165.728C105.854 168.765 102.999 175.375 102.999 175.375Z" fill="#FF8362"/>
<path opacity="0.2" d="M88.6548 159.355L88.5582 159.699C87.0118 159.265 85.694 162.719 85.6809 162.754L63.7351 223.669L63.3994 223.548L66.1821 215.824L36.2922 202.606L33.9383 209.376L33.6013 209.258L53.235 152.788L53.2458 152.771C53.3155 152.66 54.9707 150.07 56.9346 150.592L56.8433 150.937C55.2028 150.5 53.6985 152.731 53.5584 152.945L49.4027 164.898L80.8244 175.181L85.346 162.631C85.4051 162.473 86.7931 158.833 88.6548 159.355ZM49.2854 165.235L46.2242 174.04L77.158 185.358L80.7033 175.518L49.2854 165.235ZM73.5057 195.496L77.0369 185.695L46.1068 174.377L43.0676 183.118L73.5057 195.496ZM42.9501 183.456L39.6183 193.039L70.0048 205.214L73.3845 195.833L42.9501 183.456ZM66.3036 215.487L69.8836 205.55L39.5009 193.377L36.4099 202.267L66.3036 215.487Z" fill="black"/>
<path opacity="0.2" d="M100.859 173.231C99.0746 176.09 79.0907 235.935 79.0907 235.935C78.7204 236.579 78.2883 237.185 77.8006 237.745C76.133 238.319 74.4139 238.73 72.6673 238.972C72.0167 239.024 71.3622 238.972 70.7278 238.819C71.9553 238.376 74.6978 236.941 76.0574 232.72C77.8417 227.182 97.4687 168.765 97.4687 168.765C97.4687 168.765 96.8549 164.36 95.2384 161.523C95.3401 161.559 95.4293 161.591 95.506 161.62C97.671 162.402 99.5405 163.837 100.857 165.727L100.859 165.728C100.859 165.728 102.643 170.373 100.859 173.231Z" fill="black"/>
<path d="M97.2899 186.451L95.3272 192.525C95.3272 192.525 96.933 204.494 88.5469 212.354L86.7626 218.428L88.6064 218.478L90.5536 212.647C90.5536 212.647 97.0221 204.835 97.0668 193.142L98.7173 186.451H97.2899Z" fill="#3F3D56"/>
<path d="M63.6561 242.098C61.4882 242.098 59.7307 240.339 59.7307 238.168C59.7307 235.998 61.4882 234.238 63.6561 234.238C65.8241 234.238 67.5815 235.998 67.5815 238.168C67.5815 240.339 65.8241 242.098 63.6561 242.098Z" fill="#3F3D56"/>
<path d="M25.5619 225.574C23.394 225.574 21.6366 223.814 21.6366 221.644C21.6366 219.473 23.394 217.714 25.5619 217.714C27.7299 217.714 29.4873 219.473 29.4873 221.644C29.4873 223.814 27.7299 225.574 25.5619 225.574Z" fill="#3F3D56"/>
<path d="M166.546 54.4131C166.546 54.4131 175.632 56.0671 176.045 59.7885C176.281 62.402 176.281 65.0314 176.045 67.6449L166.546 54.4131Z" fill="#575A89"/>
<path d="M114.508 141.247C114.508 141.247 140.94 150.757 158.286 142.487C175.631 134.217 196.694 123.88 196.694 123.88C196.694 123.88 207.019 124.707 205.78 118.504C204.541 112.302 196.281 76.328 177.283 64.3367C177.283 64.3367 165.72 49.4509 159.112 50.2779C152.504 51.1048 126.898 112.302 126.898 112.302L114.508 141.247Z" fill="#575A89"/>
<path opacity="0.2" d="M114.508 141.247C114.508 141.247 140.94 150.757 158.286 142.487C175.631 134.217 196.694 123.88 196.694 123.88C196.694 123.88 207.019 124.707 205.78 118.504C204.541 112.302 196.281 76.328 177.283 64.3367C177.283 64.3367 165.72 49.4509 159.112 50.2779C152.504 51.1048 126.898 112.302 126.898 112.302L114.508 141.247Z" fill="black"/>
<path d="M100.467 118.918L98.8148 123.053C98.8148 123.053 88.077 129.669 92.6199 134.217C97.1628 138.766 104.001 126.568 104.001 126.568L106.662 121.399L100.467 118.918Z" fill="#A0616A"/>
<path d="M190.912 192.933L192.564 221.465L183.892 225.186L180.588 190.866L190.912 192.933Z" fill="#A0616A"/>
<path d="M155.808 192.934L144.244 207.819L140.94 217.743L132.68 217.33L130.615 207.406L142.179 195.828L155.808 192.934Z" fill="#A0616A"/>
<path d="M156.84 46.7632C150.682 46.7632 145.69 41.7648 145.69 35.5989C145.69 29.433 150.682 24.4346 156.84 24.4346C162.999 24.4346 167.991 29.433 167.991 35.5989C167.991 41.7648 162.999 46.7632 156.84 46.7632Z" fill="#A0616A"/>
<path d="M159.112 44.0757L158.286 54.413L145.07 50.2781C145.07 50.2781 150.026 42.4217 148.787 40.3542L159.112 44.0757Z" fill="#A0616A"/>
<path d="M159.112 50.278C159.112 50.278 151.287 52.3455 146.733 47.3835L137.223 51.932L149.613 98.2433L175.631 91.2139L171.501 82.1171C171.501 82.1171 176.87 75.9146 171.088 70.1257C171.088 70.1257 169.849 58.5479 166.132 56.0669C163.631 54.3417 161.282 52.405 159.112 50.278Z" fill="#D0CDE1"/>
<path d="M146.929 47.1768C146.929 47.1768 160.971 58.3411 145.69 91.4206C130.409 124.5 117.606 152.618 112.651 150.964C107.695 149.31 90.7618 136.491 96.5437 131.943C102.326 127.395 126.692 112.922 129.996 93.9016C133.3 74.8809 125.453 55.4466 125.453 55.4466L146.929 47.1768Z" fill="#575A89"/>
<path d="M131.441 59.7883L95.9235 119.745L105.835 123.88L136.397 82.5305L131.441 59.7883Z" fill="#575A89"/>
<path d="M173.567 89.9734H176.458L187.196 113.129C187.196 113.129 207.433 174.326 205.368 186.731C203.303 199.136 126.484 197.466 130.616 197.068C134.546 196.69 154.997 102.4 148.994 97.2095L173.567 89.9734Z" fill="#224E6D"/>
<path d="M189.673 218.157C189.673 218.157 190.499 214.849 193.803 214.849C197.107 214.849 197.107 219.397 197.107 219.397L206.606 228.08C206.606 228.08 214.866 238.418 204.128 238.418C193.39 238.418 193.39 235.937 193.39 235.937C193.39 235.937 190.499 233.042 188.021 234.696C185.543 236.35 179.762 233.042 180.588 231.388C181.414 229.734 182.647 219.034 183.476 220.87C184.304 222.705 189.673 218.157 189.673 218.157Z" fill="#16222B"/>
<path d="M134.745 213.195C134.745 213.195 133.919 212.781 138.049 213.195C142.179 213.608 143.831 213.195 143.831 213.195L140.94 224.359C140.94 224.359 143.418 243.38 135.158 241.726C126.898 240.072 126.898 228.494 126.898 228.494C126.898 228.494 128.137 218.157 127.311 217.33C126.485 216.503 126.898 205.338 128.137 205.338C129.376 205.338 135.356 202.659 135.356 202.659C135.356 202.659 131.441 213.195 134.745 213.195Z" fill="#16222B"/>
<path d="M156.501 36.2672C157.195 35.198 156.845 33.7442 157.331 32.5659C158.095 30.7156 160.47 30.2822 162.462 30.1134C163.783 29.9437 165.119 29.9473 166.438 30.124C167.021 30.2211 167.574 30.4524 168.052 30.7997C168.531 31.1471 168.922 31.601 169.196 32.1256C169.49 32.7176 169.416 30.8628 169.227 28.4819C169.036 26.0522 168.079 23.746 166.495 21.8957C164.911 20.0453 162.78 18.7462 160.411 18.1857C160.383 18.179 160.355 18.1725 160.328 18.1661C157.902 17.6058 155.4 17.1934 152.927 17.4843C150.454 17.7752 147.99 18.8439 146.446 20.8001C145.741 21.6942 145.242 22.7486 144.455 23.5711C143.071 25.0164 141.021 25.5423 139.137 26.213C136.977 26.9103 134.99 28.0583 133.306 29.5813C131.676 31.1509 130.521 33.3017 130.487 35.5654C130.447 38.2059 132.125 40.931 134.828 41.4516C135.298 41.5337 135.742 41.7256 136.124 42.0117C138.706 44.0155 135.761 46.1132 135.781 48.3691C135.798 50.2514 137.891 51.4782 139.77 51.566C141.525 51.5976 143.238 51.0168 144.613 49.9231C145.988 48.8294 146.94 47.2909 147.306 45.5713C147.589 44.0265 147.371 42.4399 147.187 40.8801C146.976 39.0947 150.816 34.8907 148.279 37.9722C147.784 38.5578 147.45 39.2625 147.309 40.0167C146.887 42.4784 149.125 43.3065 150.536 44.6705C151.31 45.442 151.854 46.4155 152.104 47.4804C152.354 48.5454 152.301 49.6592 151.951 50.6956C153.114 49.6403 153.873 48.2114 154.097 46.6556C154.321 45.0998 153.995 43.5146 153.176 42.1736C152.721 41.4757 152.136 40.8686 151.705 40.1559C151.032 39.0438 150.847 36.625 152.729 36.6914C154.073 36.7388 155.469 37.8588 156.501 36.2672Z" fill="#2F2E41"/>
<path d="M250.323 232.316C250.323 232.316 266.903 201.675 307 214.924L250.323 232.316Z" fill="#D0CDE1"/>
<path d="M249.323 231.567C249.323 231.567 269.828 205.472 240.232 172.918L249.323 231.567Z" fill="#D0CDE1"/>
</g>
<defs>
<clipPath id="clip0">
<rect width="307" height="244" fill="white" transform="matrix(-1 0 0 1 307 0)"/>
</clipPath>
</defs>
</svg>
